<?xml version="1.0" encoding="UTF-8" standalone="no"?><!DOCTYPE svg PUBLIC "-//W3C//DTD SVG 1.1//EN" "http://www.w3.org/Graphics/SVG/1.1/DTD/svg11.dtd"><svg width="100%" height="100%" viewBox="0 0 5488 2717" version="1.1" xmlns="http://www.w3.org/2000/svg" xmlns:xlink="http://www.w3.org/1999/xlink" xml:space="preserve" xmlns:serif="http://www.serif.com/" style="fill-rule:evenodd;clip-rule:evenodd;stroke-linejoin:round;stroke-miterlimit:2;"><rect id="Artboard-b" serif:id="Artboard b" x="0" y="0.46" width="5487.28" height="2716.18" style="fill:none;"/><g><path d="M1323.78,787.118l-189.03,525.084l105.017,0l43.507,-129.771l45.757,0l-20.253,129.771l105.017,0l74.262,-525.084l-164.277,-0Zm-9.001,303.799l42.006,-125.27l7.502,-0l-20.254,125.27l-29.254,-0Z" style="fill-rule:nonzero;"/><path d="M1561.57,787.868l-131.271,525.084l132.021,0c86.264,0 147.774,-44.257 169.528,-130.521l66.01,-264.042c21.004,-85.514 -18.003,-130.521 -105.017,-130.521l-131.271,0Zm82.514,91.515l27.004,-0c21.753,-0 28.505,11.252 21.753,36.756l-66.76,267.793c-6.001,25.504 -19.503,37.506 -42.007,37.506l-25.504,-0l85.514,-342.055Z" style="fill-rule:nonzero;"/><path d="M1839.12,787.868l-74.262,525.084l163.526,0l189.781,-525.084l-105.017,0l-133.522,409.566l-6.751,-0l71.262,-409.566l-105.017,0Z" style="fill-rule:nonzero;"/><path d="M2163.92,787.118l-189.03,525.084l105.017,0l43.507,-129.771l45.757,0l-20.253,129.771l105.017,0l74.261,-525.084l-164.276,-0Zm-9.001,303.799l42.006,-125.27l7.502,-0l-20.254,125.27l-29.254,-0Z" style="fill-rule:nonzero;"/><path d="M2573.48,787.868l-60.76,345.056l-6.001,-0l10.502,-345.056l-115.519,0l-130.521,525.084l105.017,0l62.26,-342.805l6.001,0l-12.752,342.805l115.519,0l131.271,-525.084l-105.017,0Z" style="fill-rule:nonzero;"/><path d="M2778.27,909.388c6.751,-24.754 21.753,-38.257 41.256,-38.257c19.504,0 27.005,12.753 20.254,38.257l-30.005,120.019l105.767,-0l27.754,-112.518c21.754,-87.014 -15.752,-137.272 -103.516,-137.272c-85.514,-0 -146.274,48.758 -168.027,137.272l-66.011,265.542c-22.504,88.515 13.502,138.023 99.766,138.023c86.264,-0 149.274,-50.258 171.778,-138.023l27.754,-111.767l-105.017,-0l-30.005,120.019c-6.001,24.004 -21.753,38.256 -41.256,38.256c-18.753,-0 -26.254,-13.502 -20.253,-38.256l69.761,-281.295Z" style="fill-rule:nonzero;"/><path d="M1171.19,1568.61c5.464,-21.767 19.806,-33.64 38.246,-33.64c17.757,0 23.904,11.873 18.44,33.64l-8.195,31.001l95.615,-0l6.147,-24.405c19.806,-76.514 -14.342,-120.707 -94.25,-120.707c-77.858,0 -133.178,42.874 -152.984,120.707l-3.415,12.532c-14.342,55.406 -10.927,98.28 46.442,101.578l-1.366,5.936c-59.418,3.298 -84.688,45.513 -99.03,100.919l-2.732,12.532c-21.172,82.45 12.976,121.366 65.565,121.366c38.246,0 72.394,-19.788 90.834,-52.768l6.83,0l-11.611,46.172l66.248,0l51.223,-199.858l23.904,0l16.391,-62.662l-23.904,0l10.244,-40.235l-95.615,-0l-10.244,40.235l-29.368,0c-18.44,0 -23.221,-11.872 -18.44,-31.001l15.025,-61.342Zm16.391,155.005l-21.172,82.45c-6.829,25.724 -24.586,43.533 -42.343,43.533c-15.709,0 -21.855,-13.192 -16.392,-33.639l16.392,-62.002c4.78,-18.469 17.757,-30.342 36.197,-30.342l27.318,0Z" style="fill-rule:nonzero;"/><path d="M1543.4,1461.09l-47.808,184.688l-49.173,-0l47.807,-184.688l-95.615,0l-119.519,461.719l95.615,-0l50.54,-196.56l49.856,-0l-50.539,196.56l95.615,-0l119.519,-461.719l-96.298,0Z" style="fill-rule:nonzero;"/><path d="M1632.87,1574.55l-60.102,234.157c-19.806,77.833 12.977,120.706 90.835,120.706c79.224,0 136.593,-44.193 156.399,-120.706l60.101,-234.157c19.806,-75.854 -15.025,-120.047 -94.249,-120.047c-77.858,0 -132.495,42.874 -152.984,120.047Zm97.664,-5.936c5.463,-21.767 19.806,-33.64 37.563,-33.64c17.074,0 23.904,11.213 18.44,33.64l-64.199,246.689c-5.464,21.767 -19.123,34.299 -37.563,34.299c-17.074,0 -23.904,-11.873 -18.44,-34.299l64.199,-246.689Z" style="fill-rule:nonzero;"/><path d="M1932.7,1461.09l-118.836,461.719l118.153,-0c82.639,-0 142.057,-42.215 161.18,-114.77l2.049,-7.256c17.074,-66.619 -15.025,-107.514 -49.857,-110.812l1.366,-6.596c35.514,-3.958 79.907,-38.257 96.981,-104.876l0.683,-3.298c19.123,-73.216 -15.708,-114.111 -94.932,-114.111l-116.787,0Zm75.126,80.471l21.172,0c21.855,0 25.953,9.894 19.806,33.64l-9.561,38.256c-6.147,23.746 -17.758,32.98 -38.93,32.98l-19.806,0l27.319,-104.876Zm-47.808,185.347l21.172,0c23.221,0 30.051,9.234 23.221,33.64l-11.61,46.171c-6.147,24.405 -18.44,35.619 -40.978,35.619l-21.855,-0l30.05,-115.43Z" style="fill-rule:nonzero;"/><path d="M2201.78,1461.09l-118.837,461.719l118.154,-0c82.639,-0 142.057,-42.215 161.18,-114.77l2.049,-7.256c17.074,-66.619 -15.026,-107.514 -49.857,-110.812l1.366,-6.596c35.514,-3.958 79.907,-38.257 96.981,-104.876l0.683,-3.298c19.123,-73.216 -15.708,-114.111 -94.932,-114.111l-116.787,0Zm75.126,80.471l21.172,0c21.855,0 25.953,9.894 19.806,33.64l-9.562,38.256c-6.146,23.746 -17.757,32.98 -38.929,32.98l-19.806,0l27.319,-104.876Zm-47.808,185.347l21.172,0c23.221,0 30.051,9.234 23.221,33.64l-11.61,46.171c-6.147,24.405 -18.44,35.619 -40.978,35.619l-21.855,-0l30.05,-115.43Z" style="fill-rule:nonzero;"/><path d="M2470.87,1461.09l-118.836,461.719l95.615,-0l118.837,-461.719l-95.616,0Z" style="fill-rule:nonzero;"/><path d="M2744.06,1540.91l20.489,-80.471l-174.157,-0l-118.836,462.378l175.523,-0l21.172,-80.471l-80.59,-0l31.416,-121.366l77.175,-0l20.489,-80.471l-77.175,-0l25.953,-99.599l78.541,-0Z" style="fill-rule:nonzero;"/><path d="M2989.24,1624.67l12.976,-49.47c19.806,-76.514 -14.342,-120.707 -93.566,-120.707c-77.175,0 -131.813,42.874 -150.936,115.43l-3.415,13.192c-18.44,71.896 -10.244,104.876 34.832,127.962l23.221,11.213c43.709,23.086 48.49,32.32 41.661,60.023l-8.879,32.98c-5.464,21.107 -19.806,33.64 -37.563,33.64c-17.074,-0 -23.904,-11.873 -18.44,-33.64l14.342,-56.066l-95.615,0l-12.294,48.811c-20.489,78.492 12.294,121.365 90.835,121.365c79.224,0 136.593,-44.193 156.399,-121.365l2.732,-10.554c18.44,-71.896 10.245,-103.557 -34.831,-125.983l-20.489,-9.894c-47.125,-24.405 -51.223,-34.299 -44.393,-62.002l8.196,-31.001c5.463,-21.107 19.123,-33.64 36.88,-33.64c16.391,0 23.221,11.873 17.074,33.64l-14.342,56.066l95.615,-0Z" style="fill-rule:nonzero;"/><path d="M3171.81,877.143l22.503,-91.515l-191.281,0l-130.521,525.835l192.781,-0l23.254,-91.515l-88.514,0l34.506,-138.022l84.763,0l22.504,-91.515l-84.764,0l28.505,-113.268l86.264,0Z" style="fill-rule:nonzero;"/><g><path d="M4153.4,1047.09c4.97,-19.88 9.94,-26.507 16.567,-26.507c6.626,-0 8.283,6.627 3.313,26.507l-72.894,294.89l298.204,0l67.924,-273.353c48.044,-195.489 -38.104,-306.487 -236.907,-306.487c-195.489,-0 -329.68,106.028 -379.381,306.487l-144.132,578.184c-49.7,200.459 31.477,308.144 226.966,308.144c197.146,-0 339.621,-110.998 387.665,-308.144l69.581,-271.697l-298.204,0l-72.894,294.89c-4.97,18.224 -9.94,26.507 -16.567,26.507c-6.626,0 -8.283,-8.283 -3.313,-26.507l154.072,-622.914Z" style="fill-rule:nonzero;"/></g><path d="M3290.14,785.588l-287.881,1151.53l296.107,0l101.992,-411.26l3.29,0c16.451,0 16.451,3.291 9.87,26.321l-36.19,148.054c-23.031,88.832 -39.481,164.504 -42.772,236.885l296.108,0c3.29,-70.736 19.74,-146.408 42.771,-233.595l3.29,-13.161c42.771,-176.019 -29.611,-282.946 -98.703,-282.946l4.935,-19.741c70.737,0 192.47,-93.767 236.886,-269.786l4.935,-24.676c52.641,-208.92 -36.191,-307.622 -231.95,-307.622l-302.688,-0Z" style="fill-rule:nonzero;"/><path d="M3506.63,872.278l76.849,77.472l566.847,-25.582l-467.189,121.787l99.495,108.779l-276.002,-61.551l-237,37.408l82.597,-89.661l-98.329,-63.371l174.119,-15.788l78.613,-89.493Z" style="fill:#fff;"/></g></svg>