<?xml version="1.0" encoding="UTF-8" standalone="no"?><!DOCTYPE svg PUBLIC "-//W3C//DTD SVG 1.1//EN" "http://www.w3.org/Graphics/SVG/1.1/DTD/svg11.dtd"><svg width="100%" height="100%" viewBox="0 0 5490 5490" version="1.1" xmlns="http://www.w3.org/2000/svg" xmlns:xlink="http://www.w3.org/1999/xlink" xml:space="preserve" xmlns:serif="http://www.serif.com/" style="fill-rule:evenodd;clip-rule:evenodd;stroke-linejoin:round;stroke-miterlimit:2;"><rect id="Artboard-b" serif:id="Artboard b" x="1.908" y="2.047" width="5487.28" height="5487.28" style="fill:none;"/><g><path d="M2125.82,1087.26l-213.443,592.899l118.579,-0l49.126,-146.531l51.667,0l-22.869,146.531l118.58,-0l83.853,-592.899l-185.493,-0Zm-10.164,343.034l47.432,-141.448l8.47,-0l-22.869,141.448l-33.033,0Z" style="fill-rule:nonzero;"/><path d="M2394.32,1088.11l-148.225,592.899l149.072,-0c97.405,-0 166.859,-49.973 191.422,-147.378l74.535,-298.143c23.716,-96.558 -20.327,-147.378 -118.579,-147.378l-148.225,-0Zm93.17,103.334l30.492,-0c24.563,-0 32.186,12.705 24.563,41.503l-75.383,302.378c-6.776,28.798 -22.022,42.35 -47.432,42.35l-28.798,0l96.558,-386.231Z" style="fill-rule:nonzero;"/><path d="M2707.7,1088.11l-83.852,592.899l184.645,-0l214.291,-592.899l-118.58,-0l-150.766,462.461l-7.623,0l80.465,-462.461l-118.58,-0Z" style="fill-rule:nonzero;"/><path d="M3074.46,1087.26l-213.444,592.899l118.58,-0l49.126,-146.531l51.667,0l-22.869,146.531l118.58,-0l83.853,-592.899l-185.493,-0Zm-10.164,343.034l47.432,-141.448l8.47,-0l-22.869,141.448l-33.033,0Z" style="fill-rule:nonzero;"/><path d="M3536.92,1088.11l-68.607,389.619l-6.776,0l11.858,-389.619l-130.437,-0l-147.378,592.899l118.58,-0l70.3,-387.078l6.776,-0l-14.399,387.078l130.438,-0l148.225,-592.899l-118.58,-0Z" style="fill-rule:nonzero;"/><path d="M3768.15,1225.32c7.623,-27.951 24.563,-43.197 46.585,-43.197c22.022,-0 30.492,14.399 22.869,43.197l-33.88,135.519l119.427,0l31.339,-127.049c24.563,-98.252 -17.787,-155.001 -116.886,-155.001c-96.558,-0 -165.165,55.055 -189.728,155.001l-74.536,299.837c-25.41,99.946 15.246,155.848 112.651,155.848c97.405,-0 168.553,-56.749 193.963,-155.848l31.339,-126.203l-118.58,0l-33.88,135.52c-6.776,27.104 -24.563,43.197 -46.585,43.197c-21.175,0 -29.645,-15.246 -22.869,-43.197l78.771,-317.624Z" style="fill-rule:nonzero;"/><path d="M1437.72,4004.45c6.17,-24.578 22.364,-37.984 43.186,-37.984c20.05,-0 26.991,13.406 20.821,37.984l-9.254,35.005l107.964,-0l6.941,-27.558c22.364,-86.395 -16.195,-136.295 -106.422,-136.295c-87.913,-0 -150.378,48.411 -172.742,136.295l-3.856,14.151c-16.195,62.562 -12.339,110.973 52.44,114.697l-1.543,6.703c-67.092,3.724 -95.625,51.39 -111.82,113.952l-3.084,14.151c-23.907,93.098 14.652,137.041 74.032,137.041c43.186,-0 81.744,-22.344 102.566,-59.583l7.712,-0l-13.11,52.135l74.803,-0l57.838,-225.67l26.991,0l18.508,-70.755l-26.991,0l11.568,-45.431l-107.964,-0l-11.568,45.431l-33.16,0c-20.822,0 -26.22,-13.406 -20.822,-35.004l16.966,-69.265Zm18.508,175.024l-23.906,93.098c-7.712,29.047 -27.762,49.156 -47.813,49.156c-17.737,-0 -24.677,-14.896 -18.508,-37.984l18.508,-70.01c5.398,-20.854 20.051,-34.26 40.872,-34.26l30.847,0Z" style="fill-rule:nonzero;"/><path d="M1858.01,3883.05l-53.982,208.539l-55.525,0l53.982,-208.539l-107.964,-0l-134.955,521.349l107.964,-0l57.067,-221.946l56.296,0l-57.067,221.946l107.964,-0l134.955,-521.349l-108.735,-0Z" style="fill-rule:nonzero;"/><path d="M1959.04,4011.15l-67.863,264.398c-22.364,87.885 14.652,136.296 102.566,136.296c89.456,-0 154.234,-49.901 176.598,-136.296l67.864,-264.398c22.364,-85.651 -16.966,-135.551 -106.422,-135.551c-87.914,-0 -149.608,48.411 -172.743,135.551Zm110.278,-6.703c6.169,-24.578 22.364,-37.984 42.414,-37.984c19.28,-0 26.991,12.661 20.822,37.984l-72.49,278.549c-6.17,24.578 -21.593,38.729 -42.415,38.729c-19.279,-0 -26.991,-13.406 -20.821,-38.729l72.49,-278.549Z" style="fill-rule:nonzero;"/><path d="M2297.58,3883.05l-134.184,521.349l133.413,-0c93.311,-0 160.403,-47.666 181.996,-129.593l2.314,-8.192c19.279,-75.223 -16.966,-121.4 -56.296,-125.124l1.542,-7.448c40.101,-4.469 90.228,-43.197 109.507,-118.421l0.771,-3.724c21.593,-82.671 -17.737,-128.847 -107.193,-128.847l-131.87,-0Zm84.829,90.863l23.906,0c24.677,0 29.305,11.172 22.364,37.984l-10.796,43.198c-6.941,26.812 -20.051,37.239 -43.957,37.239l-22.364,0l30.847,-118.421Zm-53.982,209.285l23.906,-0c26.22,-0 33.932,10.427 26.22,37.984l-13.11,52.135c-6.941,27.557 -20.822,40.218 -46.27,40.218l-24.678,0l33.932,-130.337Z" style="fill-rule:nonzero;"/><path d="M2601.42,3883.05l-134.183,521.349l133.412,-0c93.312,-0 160.404,-47.666 181.997,-129.593l2.313,-8.192c19.28,-75.223 -16.965,-121.4 -56.295,-125.124l1.542,-7.448c40.101,-4.469 90.227,-43.197 109.507,-118.421l0.771,-3.724c21.593,-82.671 -17.737,-128.847 -107.193,-128.847l-131.871,-0Zm84.829,90.863l23.907,0c24.677,0 29.304,11.172 22.364,37.984l-10.797,43.198c-6.94,26.812 -20.05,37.239 -43.957,37.239l-22.364,0l30.847,-118.421Zm-53.982,209.285l23.907,-0c26.219,-0 33.931,10.427 26.219,37.984l-13.109,52.135c-6.941,27.557 -20.822,40.218 -46.271,40.218l-24.677,0l33.931,-130.337Z" style="fill-rule:nonzero;"/><path d="M2905.26,3883.05l-134.184,521.349l107.964,-0l134.184,-521.349l-107.964,-0Z" style="fill-rule:nonzero;"/><path d="M3213.73,3973.17l23.135,-90.864l-196.649,-0l-134.184,522.094l198.191,-0l23.907,-90.864l-90.998,0l35.473,-137.04l87.143,-0l23.135,-90.864l-87.142,0l29.304,-112.462l88.685,-0Z" style="fill-rule:nonzero;"/><path d="M3490.58,4067.75l14.652,-55.859c22.364,-86.395 -16.195,-136.295 -105.651,-136.295c-87.142,-0 -148.836,48.411 -170.429,130.337l-3.856,14.896c-20.821,81.181 -11.567,118.421 39.33,144.488l26.22,12.661c49.355,26.068 54.753,36.495 47.042,67.776l-10.026,37.239c-6.169,23.833 -22.364,37.984 -42.414,37.984c-19.279,0 -26.991,-13.406 -20.822,-37.984l16.195,-63.307l-107.964,0l-13.881,55.114c-23.135,88.63 13.881,137.041 102.566,137.041c89.455,-0 154.234,-49.901 176.598,-137.041l3.085,-11.916c20.821,-81.182 11.567,-116.931 -39.33,-142.254l-23.135,-11.172c-53.211,-27.557 -57.838,-38.729 -50.126,-70.009l9.254,-35.005c6.169,-23.833 21.592,-37.984 41.643,-37.984c18.508,-0 26.22,13.406 19.279,37.984l-16.194,63.306l107.964,0Z" style="fill-rule:nonzero;"/><path d="M4212.52,1188.91l25.41,-103.334l-215.984,-0l-147.378,593.746l217.679,0l26.256,-103.334l-99.945,0l38.962,-155.848l95.71,0l25.41,-103.333l-95.71,-0l32.185,-127.897l97.405,-0Z" style="fill-rule:nonzero;"/><g><path d="M3399.98,2243.03c8.666,-34.667 17.333,-46.223 28.889,-46.223c11.556,0 14.445,11.556 5.778,46.223l-127.114,514.235l520.013,0l118.447,-476.678c83.78,-340.897 -66.446,-534.458 -413.121,-534.458c-340.898,0 -574.903,184.894 -661.572,534.458l-251.34,1008.25c-86.669,349.564 54.89,537.347 395.788,537.347c343.786,-0 592.237,-193.561 676.017,-537.347l121.336,-473.789l-520.013,-0l-127.114,514.235c-8.667,31.778 -17.334,46.223 -28.89,46.223c-11.556,-0 -14.445,-14.445 -5.778,-46.223l268.674,-1086.25Z" style="fill-rule:nonzero;"/></g><path d="M1894.61,1787.02l-502.014,2008.05l516.357,0l177.856,-717.162l5.737,0c28.687,0 28.687,5.737 17.212,45.898l-63.11,258.179c-40.161,154.907 -68.848,286.865 -74.585,413.085l516.357,0c5.737,-123.352 34.424,-255.31 74.585,-407.348l5.737,-22.949c74.585,-306.946 -51.636,-493.408 -172.119,-493.408l8.606,-34.423c123.352,-0 335.632,-163.513 413.085,-470.459l8.606,-43.029c91.797,-364.319 -63.11,-536.438 -404.479,-536.438l-527.831,0Z" style="fill-rule:nonzero;"/><path d="M2272.13,1938.19l134.01,135.097l988.479,-44.612l-814.694,212.375l173.501,189.691l-481.296,-107.334l-413.285,65.234l144.034,-156.354l-171.468,-110.508l303.631,-27.53l137.088,-156.059Z" style="fill:#fff;"/></g></svg>