<?xml version="1.0" encoding="UTF-8" standalone="no"?><!DOCTYPE svg PUBLIC "-//W3C//DTD SVG 1.1//EN" "http://www.w3.org/Graphics/SVG/1.1/DTD/svg11.dtd"><svg width="100%" height="100%" viewBox="0 0 5490 5490" version="1.1" xmlns="http://www.w3.org/2000/svg" xmlns:xlink="http://www.w3.org/1999/xlink" xml:space="preserve" xmlns:serif="http://www.serif.com/" style="fill-rule:evenodd;clip-rule:evenodd;stroke-linecap:round;stroke-linejoin:round;stroke-miterlimit:1.5;"><rect id="Artboard-b" serif:id="Artboard b" x="1.835" y="0.628" width="5487.28" height="5487.28" style="fill:none;"/><g><g><path d="M3880.69,3647.06l-214.595,853.194c-18.997,75.531 -95.743,136.853 -171.274,136.853l-2463.36,-0c-75.532,-0 -121.43,-61.322 -102.432,-136.853l883.325,-3511.97c18.998,-75.531 95.743,-136.853 171.274,-136.853l2463.36,0c71.231,0 116.107,54.539 105.052,124.1l-0,3639.72c-0,10.269 -8.338,18.607 -18.607,18.607l-148.856,-0c-10.269,-0 -18.607,-8.338 -18.607,-18.607l0,-968.196l-485.281,-0Zm485.281,-1929.41l-438.482,1743.34l438.482,0l0,-1743.34Z" style="fill:none;stroke:#d00003;stroke-width:10.51px;"/><path d="M2114.17,1067.87l-215.032,597.31l119.462,0l49.491,-147.621l52.052,0l-23.039,147.621l119.462,0l84.476,-597.31l-186.872,0Zm-10.24,345.587l47.785,-142.501l8.533,-0l-23.039,142.501l-33.279,-0Z" style="fill:none;fill-rule:nonzero;stroke:#d00003;stroke-width:10.51px;stroke-linecap:butt;stroke-miterlimit:2;"/><path d="M2384.67,1068.73l-149.328,597.31l150.181,-0c98.129,-0 168.1,-50.345 192.846,-148.475l75.09,-300.361c23.893,-97.276 -20.479,-148.474 -119.462,-148.474l-149.327,-0Zm93.863,104.102l30.718,0c24.746,0 32.426,12.8 24.746,41.812l-75.944,304.628c-6.826,29.012 -22.185,42.665 -47.784,42.665l-29.013,0l97.277,-389.105Z" style="fill:none;fill-rule:nonzero;stroke:#d00003;stroke-width:10.51px;stroke-linecap:butt;stroke-miterlimit:2;"/><path d="M2700.39,1068.73l-84.477,597.31l186.019,-0l215.885,-597.31l-119.462,-0l-151.887,465.901l-7.68,0l81.064,-465.901l-119.462,-0Z" style="fill:none;fill-rule:nonzero;stroke:#d00003;stroke-width:10.51px;stroke-linecap:butt;stroke-miterlimit:2;"/><path d="M3069.87,1067.87l-215.032,597.31l119.462,0l49.491,-147.621l52.052,0l-23.039,147.621l119.462,0l84.476,-597.31l-186.872,0Zm-10.24,345.587l47.785,-142.501l8.533,-0l-23.039,142.501l-33.279,-0Z" style="fill:none;fill-rule:nonzero;stroke:#d00003;stroke-width:10.51px;stroke-linecap:butt;stroke-miterlimit:2;"/><path d="M3535.77,1068.73l-69.117,392.518l-6.826,-0l11.946,-392.518l-131.408,-0l-148.475,597.31l119.462,-0l70.824,-389.958l6.827,-0l-14.506,389.958l131.408,-0l149.327,-597.31l-119.462,-0Z" style="fill:none;fill-rule:nonzero;stroke:#d00003;stroke-width:10.51px;stroke-linecap:butt;stroke-miterlimit:2;"/><path d="M3768.72,1206.96c7.68,-28.159 24.746,-43.518 46.932,-43.518c22.185,-0 30.718,14.506 23.039,43.518l-34.132,136.528l120.315,0l31.572,-127.995c24.746,-98.983 -17.919,-156.154 -117.755,-156.154c-97.276,0 -166.394,55.465 -191.139,156.154l-75.091,302.068c-25.599,100.69 15.36,157.008 113.489,157.008c98.13,-0 169.807,-57.171 195.406,-157.008l31.572,-127.141l-119.462,-0l-34.132,136.528c-6.827,27.305 -24.746,43.518 -46.932,43.518c-21.332,0 -29.865,-15.359 -23.039,-43.518l79.357,-319.988Z" style="fill:none;fill-rule:nonzero;stroke:#d00003;stroke-width:10.51px;stroke-linecap:butt;stroke-miterlimit:2;"/><path d="M1420.96,4006.77c6.215,-24.76 22.53,-38.266 43.506,-38.266c20.2,-0 27.192,13.506 20.977,38.266l-9.323,35.266l108.767,-0l6.992,-27.763c22.531,-87.037 -16.315,-137.309 -107.213,-137.309c-88.568,-0 -151.497,48.771 -174.028,137.309l-3.884,14.257c-16.315,63.027 -12.431,111.798 52.83,115.55l-1.554,6.753c-67.591,3.751 -96.337,51.772 -112.652,114.799l-3.107,14.257c-24.085,93.79 14.761,138.059 74.583,138.059c43.507,0 82.352,-22.509 103.329,-60.026l7.769,0l-13.208,52.523l75.36,0l58.269,-227.348l27.191,-0l18.646,-71.281l-27.192,-0l11.654,-45.77l-108.767,-0l-11.654,45.77l-33.407,-0c-20.976,-0 -26.415,-13.506 -20.976,-35.266l17.092,-69.78Zm18.645,176.327l-24.084,93.79c-7.769,29.263 -27.969,49.522 -48.168,49.522c-17.869,-0 -24.861,-15.007 -18.646,-38.267l18.646,-70.53c5.438,-21.009 20.199,-34.515 41.176,-34.515l31.076,-0Z" style="fill:none;fill-rule:nonzero;stroke:#d00003;stroke-width:10.51px;stroke-linecap:butt;stroke-miterlimit:2;"/><path d="M1844.37,3884.46l-54.384,210.091l-55.937,0l54.383,-210.091l-108.767,0l-135.959,525.228l108.767,-0l57.492,-223.597l56.714,-0l-57.491,223.597l108.767,-0l135.959,-525.228l-109.544,0Z" style="fill:none;fill-rule:nonzero;stroke:#d00003;stroke-width:10.51px;stroke-linecap:butt;stroke-miterlimit:2;"/><path d="M1946.15,4013.52l-68.368,266.366c-22.53,88.538 14.761,137.309 103.329,137.309c90.121,0 155.382,-50.272 177.912,-137.309l68.368,-266.366c22.53,-86.287 -17.092,-136.559 -107.213,-136.559c-88.568,-0 -150.721,48.771 -174.028,136.559Zm111.098,-6.753c6.215,-24.76 22.53,-38.266 42.73,-38.266c19.423,-0 27.192,12.755 20.976,38.266l-73.029,280.622c-6.215,24.761 -21.753,39.017 -42.73,39.017c-19.423,-0 -27.192,-13.506 -20.977,-39.017l73.03,-280.622Z" style="fill:none;fill-rule:nonzero;stroke:#d00003;stroke-width:10.51px;stroke-linecap:butt;stroke-miterlimit:2;"/><path d="M2287.21,3884.46l-135.182,525.228l134.405,-0c94.006,-0 161.597,-48.021 183.351,-130.557l2.33,-8.253c19.423,-75.783 -17.092,-122.303 -56.714,-126.055l1.554,-7.503c40.399,-4.502 90.898,-43.519 110.321,-119.302l0.777,-3.752c21.753,-83.286 -17.869,-129.806 -107.991,-129.806l-132.851,0Zm85.46,91.54l24.084,-0c24.861,-0 29.523,11.255 22.53,38.266l-10.876,43.519c-6.992,27.012 -20.2,37.517 -44.284,37.517l-22.53,-0l31.076,-119.302Zm-54.384,210.841l24.084,0c26.415,0 34.184,10.505 26.415,38.267l-13.207,52.523c-6.992,27.762 -20.977,40.517 -46.615,40.517l-24.861,0l34.184,-131.307Z" style="fill:none;fill-rule:nonzero;stroke:#d00003;stroke-width:10.51px;stroke-linecap:butt;stroke-miterlimit:2;"/><path d="M2593.31,3884.46l-135.182,525.228l134.405,-0c94.006,-0 161.597,-48.021 183.351,-130.557l2.33,-8.253c19.423,-75.783 -17.092,-122.303 -56.714,-126.055l1.554,-7.503c40.399,-4.502 90.898,-43.519 110.321,-119.302l0.777,-3.752c21.753,-83.286 -17.869,-129.806 -107.991,-129.806l-132.851,0Zm85.46,91.54l24.084,-0c24.861,-0 29.523,11.255 22.531,38.266l-10.877,43.519c-6.992,27.012 -20.2,37.517 -44.284,37.517l-22.53,-0l31.076,-119.302Zm-54.384,210.841l24.085,0c26.414,0 34.184,10.505 26.414,38.267l-13.207,52.523c-6.992,27.762 -20.977,40.517 -46.615,40.517l-24.861,0l34.184,-131.307Z" style="fill:none;fill-rule:nonzero;stroke:#d00003;stroke-width:10.51px;stroke-linecap:butt;stroke-miterlimit:2;"/><path d="M2899.41,3884.46l-135.182,525.228l108.767,-0l135.182,-525.228l-108.767,0Z" style="fill:none;fill-rule:nonzero;stroke:#d00003;stroke-width:10.51px;stroke-linecap:butt;stroke-miterlimit:2;"/><path d="M3210.18,3975.25l23.307,-91.54l-198.112,-0l-135.182,525.978l199.666,-0l24.084,-91.54l-91.675,0l35.737,-138.06l87.791,0l23.307,-91.539l-87.79,-0l29.522,-113.299l89.345,-0Z" style="fill:none;fill-rule:nonzero;stroke:#d00003;stroke-width:10.51px;stroke-linecap:butt;stroke-miterlimit:2;"/><path d="M3489.09,4070.54l14.761,-56.275c22.531,-87.037 -16.315,-137.309 -106.436,-137.309c-87.791,-0 -149.944,48.771 -171.697,131.307l-3.885,15.006c-20.976,81.786 -11.653,119.302 39.623,145.563l26.415,12.756c49.722,26.261 55.16,36.766 47.391,68.28l-10.1,37.516c-6.215,24.01 -22.53,38.266 -42.73,38.266c-19.423,0 -27.192,-13.505 -20.976,-38.266l16.315,-63.778l-108.768,0l-13.984,55.524c-23.307,89.289 13.984,138.06 103.329,138.06c90.121,0 155.382,-50.272 177.912,-138.06l3.108,-12.005c20.976,-81.785 11.653,-117.801 -39.623,-143.312l-23.307,-11.255c-53.607,-27.762 -58.268,-39.017 -50.499,-70.53l9.323,-35.266c6.215,-24.01 21.753,-38.266 41.953,-38.266c18.646,-0 26.415,13.506 19.423,38.266l-16.315,63.778l108.767,-0Z" style="fill:none;fill-rule:nonzero;stroke:#d00003;stroke-width:10.51px;stroke-linecap:butt;stroke-miterlimit:2;"/><path d="M4216.4,1170.28l25.599,-104.103l-217.591,0l-148.474,598.163l219.298,0l26.452,-104.102l-100.689,-0l39.252,-157.008l96.422,0l25.599,-104.102l-96.422,-0l32.425,-128.848l98.129,-0Z" style="fill:none;fill-rule:nonzero;stroke:#d00003;stroke-width:10.51px;stroke-linecap:butt;stroke-miterlimit:2;"/><g><path d="M3397.81,2232.25c8.731,-34.925 17.463,-46.567 29.104,-46.567c11.642,-0 14.553,11.642 5.821,46.567l-128.06,518.061l523.882,-0l119.328,-480.225c84.403,-343.433 -66.94,-538.434 -416.194,-538.434c-343.434,0 -579.18,186.269 -666.494,538.434l-253.209,1015.75c-87.314,352.165 55.298,541.344 398.732,541.344c346.343,0 596.642,-195 681.046,-541.344l122.239,-477.314l-523.882,-0l-128.06,518.06c-8.731,32.015 -17.463,46.568 -29.104,46.568c-11.642,-0 -14.553,-14.553 -5.821,-46.568l270.672,-1094.33Z" style="fill:none;fill-rule:nonzero;stroke:#d00003;stroke-width:10.51px;stroke-linecap:butt;stroke-miterlimit:2;"/></g><path d="M1881.24,1772.84l-505.748,2022.99l520.198,0l179.179,-722.497l5.78,-0c28.9,-0 28.9,5.78 17.34,46.24l-63.58,260.099c-40.46,156.059 -69.359,288.998 -75.139,416.158l520.198,0c5.78,-124.27 34.679,-257.209 75.139,-410.378l5.78,-23.12c75.14,-309.229 -52.019,-497.078 -173.399,-497.078l8.67,-34.68c124.269,-0 338.129,-164.73 416.158,-473.959l8.67,-43.349c92.48,-367.029 -63.579,-540.428 -407.488,-540.428l-531.758,-0Z" style="fill:none;fill-rule:nonzero;stroke:#d00003;stroke-width:10.51px;stroke-linecap:butt;stroke-miterlimit:2;"/><path d="M2261.57,1925.14l135.007,136.102l995.832,-44.943l-820.754,213.954l174.791,191.102l-484.876,-108.133l-416.36,65.72l145.106,-157.517l-172.744,-111.33l305.89,-27.735l138.108,-157.22Z" style="fill:#d00003;"/></g></g></svg>