<?xml version="1.0" encoding="UTF-8" standalone="no"?><!DOCTYPE svg PUBLIC "-//W3C//DTD SVG 1.1//EN" "http://www.w3.org/Graphics/SVG/1.1/DTD/svg11.dtd"><svg width="100%" height="100%" viewBox="0 0 5490 5490" version="1.1" xmlns="http://www.w3.org/2000/svg" xmlns:xlink="http://www.w3.org/1999/xlink" xml:space="preserve" xmlns:serif="http://www.serif.com/" style="fill-rule:evenodd;clip-rule:evenodd;stroke-linejoin:round;stroke-miterlimit:2;"><rect id="Artboard-b" serif:id="Artboard b" x="1.653" y="0.49" width="5487.28" height="5487.28" style="fill:none;"/><g><g><path d="M3620.42,1974.35c11.292,-45.164 22.583,-60.219 37.637,-60.219c15.055,0 18.819,15.055 7.528,60.219l-165.603,669.937l677.465,0l154.311,-621.009c109.147,-444.115 -86.565,-696.282 -538.208,-696.282c-444.115,-0 -748.974,240.876 -861.885,696.282l-327.441,1313.53c-112.911,455.407 71.51,700.047 515.626,700.047c447.879,-0 771.556,-252.168 880.703,-700.047l158.075,-617.245l-677.464,-0l-165.602,669.937c-11.292,41.4 -22.583,60.219 -37.637,60.219c-15.055,-0 -18.819,-18.819 -7.528,-60.219l350.023,-1415.15Z" style="fill:#d00003;fill-rule:nonzero;"/></g><path d="M1659.25,1380.26l-654.015,2616.06l672.701,-0l231.708,-934.307l7.475,0c37.372,0 37.372,7.475 22.423,59.796l-82.219,336.35c-52.321,201.811 -89.693,373.723 -97.168,538.161l672.701,-0c7.475,-160.701 44.847,-332.613 97.168,-530.686l7.475,-29.898c97.168,-399.883 -67.27,-642.803 -224.234,-642.803l11.212,-44.847c160.7,0 437.255,-213.022 538.16,-612.905l11.212,-56.059c119.591,-474.628 -82.219,-698.861 -526.949,-698.861l-687.65,-0Z" style="fill:#d00003;fill-rule:nonzero;"/><path d="M2151.08,1577.2l174.586,176.003l1287.77,-58.119l-1061.37,276.677l226.034,247.127l-627.025,-139.833l-538.421,84.986l187.646,-203.695l-223.386,-143.968l395.565,-35.866l178.596,-203.312Z" style="fill:#fff;"/></g></svg>